<svg width="511" height="511" viewBox="0 0 511 511" fill="none" xmlns="http://www.w3.org/2000/svg">
<g clip-path="url(#clip0_615_2)">
<path d="M133.063 394.559C98.9767 394.559 68.6564 372.734 57.6464 340.242L56.9018 337.794C54.3052 329.19 53.2175 321.954 53.2175 314.714V169.541L1.56338 341.966C-5.08003 367.327 10.0587 393.62 35.4588 400.626L364.702 488.799C368.811 489.863 372.92 490.374 376.967 490.374C398.172 490.374 417.549 476.3 422.98 455.559L442.161 394.559H133.063Z" fill="#DCE5F1"/>
<path d="M191.618 170.992C215.104 170.992 234.2 151.892 234.2 128.406C234.2 104.92 215.104 85.8203 191.618 85.8203C168.132 85.8203 149.032 104.92 149.032 128.406C149.032 151.892 168.132 170.992 191.618 170.992Z" fill="#DCE5F1"/>
<path d="M457.768 21.9434H138.385C109.047 21.9434 85.1558 45.8347 85.1558 75.1764V309.388C85.1558 338.73 109.047 362.621 138.385 362.621H457.768C487.11 362.621 511.001 338.73 511.001 309.388V75.1764C511.001 45.8347 487.11 21.9434 457.768 21.9434V21.9434ZM138.385 64.529H457.768C463.647 64.529 468.415 69.2972 468.415 75.1764V226.33L401.155 147.845C394.02 139.478 383.692 135.006 372.6 134.753C361.571 134.815 351.224 139.712 344.155 148.188L265.074 243.106L239.311 217.406C224.749 202.844 201.049 202.844 186.507 217.406L127.741 276.151V75.1764C127.741 69.2972 132.51 64.529 138.385 64.529V64.529Z" fill="#DCE5F1"/>
</g>
<defs>
<clipPath id="clip0_615_2">
<rect width="511" height="511" fill="white"/>
</clipPath>
</defs>
</svg>
